# xmcd CD database file
#
# Track frame offsets:
#	150
#	26035
#	51897
#	84207
#	112667
#	154942
#
# Disc length: 2301 seconds
#
# Revision: 0
# Processed by: cddbd v1.5.1PL2 Copyright (c) Steve Scherf et al.
# Submitted via: CDex 1.51
#
DISCID=3b08fb06
DTITLE=Bob James - Touchdown
DYEAR=1994
DGENRE=Jazz
TTITLE0=Angela (Theme from "Taxi")
TTITLE1=Touchdown
TTITLE2=I Want To Thank You (Very Much)
TTITLE3=Sun Runner
TTITLE4=Caribbean Night
TTITLE5=With The One You Love
EXTD=YEAR: 1994
EXTT0=
EXTT1=
EXTT2=
EXTT3=
EXTT4=
EXTT5=
PLAYORDER=
